<?xml version="1.0" standalone="no"?>
<!DOCTYPE svg PUBLIC "-//W3C//DTD SVG 20010904//EN"
 "http://www.w3.org/TR/2001/REC-SVG-20010904/DTD/svg10.dtd">
<svg version="1.0" xmlns="http://www.w3.org/2000/svg"
 width="480.000000pt" height="480.000000pt" viewBox="0 0 480.000000 480.000000"
 preserveAspectRatio="xMidYMid meet">

<g transform="translate(0.000000,480.000000) scale(0.100000,-0.100000)"
fill="#000000" stroke="none">
<path d="M1285 4699 c-116 -27 -160 -64 -184 -155 -20 -75 0 -126 235 -596
123 -247 224 -457 224 -469 0 -11 -55 -113 -121 -227 -67 -114 -178 -304 -247
-422 -69 -118 -162 -278 -207 -355 -46 -77 -90 -155 -99 -172 -16 -32 -21 -80
-46 -413 -6 -74 -15 -170 -20 -212 -6 -42 -12 -136 -13 -210 -2 -163 12 -209
93 -307 117 -140 355 -281 700 -415 247 -95 319 -116 405 -116 68 0 77 2 109
30 41 37 86 142 93 221 6 59 -15 117 -53 150 -11 9 -118 64 -239 122 -121 58
-305 146 -409 196 l-189 91 7 257 c4 142 11 262 15 266 5 5 62 -20 127 -56 66
-36 151 -81 189 -102 151 -81 489 -262 660 -355 99 -54 230 -123 290 -155 61
-32 148 -79 195 -105 47 -26 144 -77 215 -115 72 -37 142 -77 157 -87 15 -10
54 -58 86 -106 32 -48 136 -202 232 -342 95 -140 191 -281 212 -312 49 -71 91
-109 159 -141 72 -33 122 -40 199 -28 74 12 122 45 158 110 31 54 40 148 20
187 -23 45 -68 123 -110 192 -21 34 -38 65 -38 67 0 9 -302 518 -333 562 -28
39 -74 72 -202 143 -22 12 -114 66 -205 120 -91 54 -182 107 -202 118 -175 98
-398 237 -398 247 0 7 102 68 228 136 125 67 295 159 377 204 83 45 158 84
169 88 20 8 24 4 206 -192 245 -266 394 -422 426 -446 101 -77 245 -71 334 14
44 42 60 89 60 177 l0 61 -87 115 c-49 63 -171 221 -273 352 -316 407 -341
440 -376 488 -44 59 -95 81 -150 67 -42 -11 -162 -61 -474 -197 -107 -47 -256
-111 -330 -142 -74 -32 -179 -76 -234 -100 l-98 -42 -395 199 c-217 109 -397
203 -400 210 -3 7 2 25 10 40 32 63 105 197 187 343 153 274 185 340 184 385
-1 32 -23 79 -105 225 -58 102 -152 268 -209 370 -264 472 -273 485 -341 520
-45 24 -121 32 -174 19z"/>
<path d="M565 3416 c-114 -28 -233 -125 -281 -231 -74 -161 -40 -351 85 -476
97 -97 235 -143 358 -120 119 22 224 89 285 183 53 82 68 132 68 231 0 111
-19 172 -79 251 -104 138 -275 201 -436 162z"/>
</g>
</svg>
