<?xml version="1.0" standalone="no"?>
<!DOCTYPE svg PUBLIC "-//W3C//DTD SVG 20010904//EN"
 "http://www.w3.org/TR/2001/REC-SVG-20010904/DTD/svg10.dtd">
<svg version="1.0" xmlns="http://www.w3.org/2000/svg"
 width="1080.000000pt" height="1080.000000pt" viewBox="0 0 1080.000000 1080.000000"
 preserveAspectRatio="xMidYMid meet">

<g transform="translate(0.000000,1080.000000) scale(0.100000,-0.100000)"
fill="#000000" stroke="none">
<path d="M4960 10404 c-1198 -113 -2269 -612 -3106 -1448 -559 -559 -962
-1206 -1216 -1956 -274 -809 -333 -1712 -167 -2560 192 -979 666 -1874 1369
-2578 433 -435 901 -762 1471 -1027 497 -231 1088 -387 1654 -436 180 -16 689
-16 870 0 473 41 931 150 1430 340 153 59 542 252 710 353 376 227 659 450
980 772 414 415 690 802 950 1331 274 555 443 1158 496 1770 16 181 16 690 0
870 -91 1048 -506 2033 -1197 2841 -434 507 -984 933 -1589 1229 -575 282
-1149 442 -1798 500 -207 19 -654 18 -857 -1z m865 -215 c843 -71 1705 -393
2386 -890 222 -162 377 -296 584 -503 116 -116 258 -269 316 -341 630 -774
993 -1669 1079 -2660 15 -166 15 -622 0 -790 -67 -779 -319 -1529 -736 -2185
-367 -576 -898 -1107 -1474 -1474 -656 -417 -1406 -669 -2185 -736 -168 -15
-624 -15 -790 0 -991 86 -1886 449 -2660 1079 -171 139 -524 492 -656 656
-248 308 -407 550 -564 860 -299 592 -459 1144 -516 1785 -16 174 -16 647 0
820 44 485 142 904 316 1350 484 1237 1478 2231 2715 2715 513 201 988 300
1565 329 109 5 487 -4 620 -15z"/>
<path d="M3700 9176 c-99 -19 -139 -35 -181 -73 -53 -48 -74 -86 -93 -168 -26
-120 -21 -133 358 -899 206 -416 336 -690 336 -707 0 -28 -31 -84 -255 -464
-46 -77 -94 -160 -108 -185 -25 -46 -91 -161 -269 -463 -57 -97 -136 -233
-177 -304 -41 -70 -103 -176 -138 -235 -85 -143 -91 -158 -103 -284 -5 -60
-15 -158 -21 -219 -5 -60 -14 -182 -19 -270 -5 -88 -16 -212 -24 -275 -33
-253 -38 -487 -13 -575 35 -121 60 -162 166 -277 141 -151 422 -333 706 -455
85 -37 287 -119 395 -160 36 -13 85 -33 110 -43 106 -42 300 -98 365 -104 39
-3 97 -2 130 3 55 9 65 15 111 65 45 47 56 68 89 167 45 138 49 208 15 287
-29 68 -74 106 -185 157 -164 77 -238 112 -499 239 -142 69 -260 126 -262 126
-2 0 -87 40 -188 89 -153 74 -186 94 -191 114 -7 24 9 527 21 685 4 57 11 85
20 89 8 3 100 -42 206 -100 106 -58 238 -128 293 -157 55 -29 147 -78 205
-110 249 -137 341 -187 435 -235 55 -28 125 -65 155 -82 158 -87 539 -293 542
-293 4 0 187 -99 338 -182 42 -23 163 -88 470 -253 69 -37 133 -74 144 -83 10
-10 47 -60 81 -112 35 -52 96 -142 136 -200 40 -58 122 -179 184 -270 61 -91
145 -214 186 -275 41 -60 110 -162 154 -225 93 -137 132 -180 205 -228 107
-69 162 -85 285 -85 126 1 173 14 245 69 85 65 140 218 120 337 -6 39 -33 95
-108 222 -54 94 -111 193 -125 221 -15 29 -58 104 -96 167 -38 63 -81 137 -96
163 -52 93 -258 439 -291 489 -50 75 -87 106 -224 186 -69 40 -224 131 -345
203 -121 71 -283 166 -360 211 -380 220 -582 340 -597 353 -37 31 -22 47 110
117 70 38 143 77 162 88 73 41 296 161 325 175 17 8 104 55 195 105 91 49 194
105 230 125 36 19 75 41 87 49 12 8 36 15 54 15 28 1 41 -7 79 -49 298 -332
803 -865 862 -911 74 -57 148 -82 241 -82 171 0 304 85 344 220 23 76 20 221
-4 260 -25 41 -196 264 -587 765 -38 50 -90 117 -115 150 -25 33 -62 80 -83
104 -21 24 -54 67 -73 95 -19 28 -69 94 -111 146 -41 52 -98 126 -126 163 -60
80 -110 111 -179 110 -53 -1 -107 -19 -299 -103 -74 -32 -180 -78 -235 -101
-55 -23 -122 -52 -150 -64 -27 -12 -79 -35 -115 -50 -36 -15 -108 -47 -160
-70 -52 -24 -156 -69 -230 -100 -225 -96 -342 -146 -410 -177 -116 -53 -154
-65 -180 -58 -19 5 -787 390 -1125 564 -43 22 -61 37 -63 53 -2 14 18 60 47
113 28 49 51 92 51 94 0 3 53 101 119 218 346 621 382 695 366 755 -3 14 -34
75 -69 137 -35 61 -141 251 -236 421 -95 171 -192 344 -215 385 -23 41 -65
116 -93 165 -195 348 -252 440 -302 491 -87 88 -204 118 -350 90z"/>
<path d="M2620 7234 c-208 -45 -385 -208 -460 -424 -19 -54 -23 -86 -23 -195
0 -114 3 -139 26 -203 56 -161 165 -288 308 -360 90 -46 221 -82 296 -82 73 0
212 39 296 82 101 53 209 159 259 255 112 214 105 458 -18 645 -56 83 -164
184 -243 226 -124 67 -293 88 -441 56z"/>
</g>
</svg>
