<?xml version="1.0" standalone="no"?>
<!DOCTYPE svg PUBLIC "-//W3C//DTD SVG 20010904//EN"
 "http://www.w3.org/TR/2001/REC-SVG-20010904/DTD/svg10.dtd">
<svg version="1.0" xmlns="http://www.w3.org/2000/svg"
 width="1080.000000pt" height="1080.000000pt" viewBox="0 0 1080.000000 1080.000000"
 preserveAspectRatio="xMidYMid meet">

<g transform="translate(0.000000,1080.000000) scale(0.100000,-0.100000)"
fill="#000000" stroke="none">
<path d="M5180 10024 c-25 -2 -108 -8 -185 -14 -569 -45 -1137 -207 -1679
-480 -461 -231 -816 -489 -1186 -860 -374 -375 -629 -726 -860 -1186 -270
-536 -424 -1071 -481 -1674 -16 -169 -17 -655 -1 -815 62 -622 203 -1116 473
-1660 232 -470 498 -837 877 -1213 364 -362 718 -619 1157 -842 247 -125 428
-201 655 -275 507 -165 909 -229 1450 -229 525 -1 917 60 1424 220 206 65 395
143 642 265 458 226 819 487 1202 867 374 372 644 746 871 1206 123 249 189
409 255 612 166 512 231 921 230 1454 0 541 -64 943 -229 1450 -74 227 -150
408 -275 655 -223 439 -480 793 -842 1157 -376 379 -743 645 -1213 877 -539
268 -1047 413 -1645 471 -110 11 -563 21 -640 14z m670 -220 c539 -55 1019
-195 1517 -440 437 -216 813 -486 1162 -835 351 -351 620 -726 841 -1174 238
-483 381 -980 436 -1520 22 -216 22 -654 0 -870 -79 -779 -364 -1534 -815
-2155 -260 -359 -647 -746 -1001 -1002 -626 -452 -1374 -734 -2155 -814 -216
-22 -654 -22 -870 0 -540 55 -1037 198 -1520 436 -448 221 -823 490 -1174 841
-349 349 -619 725 -835 1162 -246 498 -379 959 -442 1522 -22 207 -22 673 0
885 61 561 192 1018 436 1515 371 753 934 1372 1655 1818 547 337 1176 554
1825 628 264 30 664 31 940 3z"/>
<path d="M3700 9176 c-99 -19 -139 -35 -181 -73 -53 -48 -74 -86 -93 -168 -26
-120 -21 -133 358 -899 206 -416 336 -690 336 -707 0 -28 -31 -84 -255 -464
-46 -77 -94 -160 -108 -185 -25 -46 -91 -161 -269 -463 -57 -97 -136 -233
-177 -304 -41 -70 -103 -176 -138 -235 -85 -143 -91 -158 -103 -284 -5 -60
-15 -158 -21 -219 -5 -60 -14 -182 -19 -270 -5 -88 -16 -212 -24 -275 -33
-253 -38 -487 -13 -575 35 -121 60 -162 166 -277 141 -151 422 -333 706 -455
85 -37 287 -119 395 -160 36 -13 85 -33 110 -43 106 -42 300 -98 365 -104 39
-3 97 -2 130 3 55 9 65 15 111 65 45 47 56 68 89 167 45 138 49 208 15 287
-29 68 -74 106 -185 157 -164 77 -238 112 -499 239 -142 69 -260 126 -262 126
-2 0 -87 40 -188 89 -153 74 -186 94 -191 114 -7 24 9 527 21 685 4 57 11 85
20 89 8 3 100 -42 206 -100 106 -58 238 -128 293 -157 55 -29 147 -78 205
-110 249 -137 341 -187 435 -235 55 -28 125 -65 155 -82 158 -87 539 -293 542
-293 4 0 187 -99 338 -182 42 -23 163 -88 470 -253 69 -37 133 -74 144 -83 10
-10 47 -60 81 -112 35 -52 96 -142 136 -200 40 -58 122 -179 184 -270 61 -91
145 -214 186 -275 41 -60 110 -162 154 -225 93 -137 132 -180 205 -228 107
-69 162 -85 285 -85 126 1 173 14 245 69 85 65 140 218 120 337 -6 39 -33 95
-108 222 -54 94 -111 193 -125 221 -15 29 -58 104 -96 167 -38 63 -81 137 -96
163 -52 93 -258 439 -291 489 -50 75 -87 106 -224 186 -69 40 -224 131 -345
203 -121 71 -283 166 -360 211 -380 220 -582 340 -597 353 -37 31 -22 47 110
117 70 38 143 77 162 88 73 41 296 161 325 175 17 8 104 55 195 105 91 49 194
105 230 125 36 19 75 41 87 49 12 8 36 15 54 15 28 1 41 -7 79 -49 298 -332
803 -865 862 -911 74 -57 148 -82 241 -82 171 0 304 85 344 220 23 76 20 221
-4 260 -25 41 -196 264 -587 765 -38 50 -90 117 -115 150 -25 33 -62 80 -83
104 -21 24 -54 67 -73 95 -19 28 -69 94 -111 146 -41 52 -98 126 -126 163 -60
80 -110 111 -179 110 -53 -1 -107 -19 -299 -103 -74 -32 -180 -78 -235 -101
-55 -23 -122 -52 -150 -64 -27 -12 -79 -35 -115 -50 -36 -15 -108 -47 -160
-70 -52 -24 -156 -69 -230 -100 -225 -96 -342 -146 -410 -177 -116 -53 -154
-65 -180 -58 -19 5 -787 390 -1125 564 -43 22 -61 37 -63 53 -2 14 18 60 47
113 28 49 51 92 51 94 0 3 53 101 119 218 346 621 382 695 366 755 -3 14 -34
75 -69 137 -35 61 -141 251 -236 421 -95 171 -192 344 -215 385 -23 41 -65
116 -93 165 -195 348 -252 440 -302 491 -87 88 -204 118 -350 90z"/>
<path d="M2620 7234 c-208 -45 -385 -208 -460 -424 -19 -54 -23 -86 -23 -195
0 -114 3 -139 26 -203 56 -161 165 -288 308 -360 90 -46 221 -82 296 -82 73 0
212 39 296 82 101 53 209 159 259 255 112 214 105 458 -18 645 -56 83 -164
184 -243 226 -124 67 -293 88 -441 56z"/>
</g>
</svg>
