<?xml version="1.0" standalone="no"?>
<!DOCTYPE svg PUBLIC "-//W3C//DTD SVG 20010904//EN"
 "http://www.w3.org/TR/2001/REC-SVG-20010904/DTD/svg10.dtd">
<svg version="1.0" xmlns="http://www.w3.org/2000/svg"
 width="548.000000pt" height="84.000000pt" viewBox="0 0 548.000000 84.000000"
 preserveAspectRatio="xMidYMid meet">

<g transform="translate(0.000000,84.000000) scale(0.100000,-0.100000)"
fill="#000000" stroke="none">
<path d="M23 814 l-23 -26 0 -394 0 -394 75 0 75 0 0 350 0 350 310 0 310 0 0
70 0 70 -362 0 -363 0 -22 -26z"/>
<path d="M939 808 c-1 -18 -1 -196 -1 -396 l0 -363 23 -25 22 -24 369 0 368 0
0 75 0 75 -315 0 -315 0 0 345 0 345 -75 0 -75 0 -1 -32z"/>
<path d="M2035 823 c-130 -70 -184 -171 -190 -358 -7 -239 46 -364 187 -435
l61 -30 216 0 c205 0 218 1 266 24 66 30 132 98 164 166 23 49 26 70 29 201 6
230 -30 329 -150 409 l-60 40 -247 0 c-207 -1 -251 -3 -276 -17z m476 -136
c24 -13 58 -43 74 -66 l30 -43 0 -151 c0 -175 -8 -199 -84 -252 -42 -30 -44
-30 -195 -33 -169 -4 -218 4 -267 45 -56 47 -69 91 -69 238 0 144 12 187 66
237 42 39 82 46 250 47 140 1 154 -1 195 -22z"/>
<path d="M3073 800 c-65 -43 -107 -95 -129 -161 -43 -122 -36 -358 11 -456 35
-71 92 -128 158 -159 50 -23 61 -24 270 -24 203 0 221 1 260 21 98 51 154 115
182 213 13 45 16 89 13 214 -3 145 -5 161 -29 213 -31 65 -90 129 -148 159
-37 18 -58 20 -284 20 l-245 0 -59 -40z m502 -109 c92 -42 115 -96 115 -268 0
-145 -13 -189 -69 -236 -46 -38 -90 -47 -241 -47 -160 0 -202 10 -251 59 -47
47 -59 91 -59 226 0 131 11 175 53 221 49 53 90 63 262 63 125 1 157 -3 190
-18z"/>
<path d="M4055 810 c-13 -24 -15 -89 -15 -420 l0 -390 75 0 75 0 0 350 0 350
269 0 c172 0 272 -4 276 -10 14 -22 7 -157 -9 -189 -32 -61 -49 -66 -267 -69
l-197 -3 -4 -75 -3 -74 54 0 c61 0 57 3 263 -178 l118 -103 116 3 115 3 -150
129 c-83 72 -151 134 -151 138 0 4 9 8 20 8 43 0 134 44 175 85 58 57 78 120
77 242 -1 118 -13 153 -65 198 l-41 35 -358 0 -357 0 -16 -30z"/>
<path d="M5030 727 c0 -110 1 -115 23 -121 12 -3 92 -6 178 -6 l157 0 6 -31
c3 -17 6 -62 6 -100 l0 -69 40 0 40 0 0 220 0 220 -40 0 -40 0 -2 -57 c0 -32
-1 -65 -2 -73 -1 -13 -24 -15 -140 -15 l-139 0 -1 70 -1 70 -42 3 -43 3 0
-114z"/>
<path d="M214 501 c-2 -2 -4 -37 -4 -78 l0 -73 245 0 245 0 0 75 0 74 -241 3
c-132 2 -243 1 -245 -1z"/>
</g>
</svg>
